<?xml version="1.0" encoding="UTF-8"?>
<svg width="16px" height="16px" viewBox="0 0 16 16" version="1.1" xmlns="http://www.w3.org/2000/svg" xmlns:xlink="http://www.w3.org/1999/xlink">
    <title>COLOR/ black</title>
    <defs>
        <path d="M19.0606602,4.93933983 C19.609835,5.48851461 19.6441584,6.35757702 19.1636304,6.94673776 L19.0606602,7.06066017 L14.121,12 L19.0606602,16.9393398 C19.6464466,17.5251263 19.6464466,18.4748737 19.0606602,19.0606602 C18.5114854,19.609835 17.642423,19.6441584 17.0532622,19.1636304 L16.9393398,19.0606602 L12,14.121 L7.06066017,19.0606602 C6.47487373,19.6464466 5.52512627,19.6464466 4.93933983,19.0606602 C4.39016504,18.5114854 4.35584162,17.642423 4.83636956,17.0532622 L4.93933983,16.9393398 L9.879,12 L4.93933983,7.06066017 C4.35355339,6.47487373 4.35355339,5.52512627 4.93933983,4.93933983 C5.48851461,4.39016504 6.35757702,4.35584162 6.94673776,4.83636956 L7.06066017,4.93933983 L12,9.879 L16.9393398,4.93933983 C17.5251263,4.35355339 18.4748737,4.35355339 19.0606602,4.93933983 Z" id="path-1"></path>
    </defs>
    <g id="Symbols" stroke="none" stroke-width="1" fill="none" fill-rule="evenodd">
        <g id="feather-/-cross" transform="translate(-4.000000, -4.000000)">
            <mask id="mask-2" fill="white">
                <use xlink:href="#path-1"></use>
            </mask>
            <use id="Combined-Shape" fill="#18191F" fill-rule="nonzero" xlink:href="#path-1"></use>
            <g id="Group" mask="url(#mask-2)" fill="#18191F">
                <g id="COLOR/-black">
                    <rect id="Rectangle" x="0" y="0" width="24" height="24"></rect>
                </g>
            </g>
        </g>
    </g>
</svg>